<svg viewBox="0 0 160 20" preserveAspectRatio="xMidYMid meet" xmlns="http://www.w3.org/2000/svg">		  
<g fill="none">
<path fill="#5c87c6" d="M21.4 2.6C20.6 1.8 19.2 1.8 18.4 2.6L11.5 9.8 8 6.2C7.2 5.4 5.9 5.4 5.1 6.2L0.6 10.8C-0.2 11.6-0.2 13 0.6 13.9 1.4 14.7 2.8 14.7 3.6 13.9L6.5 10.8 10 14.4C10.8 15.2 12.1 15.2 12.9 14.4L21.3 5.7C22.2 4.9 22.2 3.5 21.4 2.6Z"></path>
<path fill="#333333" d="M35.7 16.6C34.5 16.6 33.3 16.4 32.2 16 31.1 15.6 30.1 15 29.1 14.1L30.8 12.2C31.6 12.8 32.3 13.3 33.1 13.7 33.9 14 34.8 14.2 35.8 14.2 36.6 14.2 37.3 14 37.8 13.7 38.3 13.3 38.6 12.8 38.6 12.2L38.6 12.2C38.6 11.9 38.5 11.6 38.4 11.4 38.3 11.2 38.1 11 37.9 10.8 37.6 10.6 37.2 10.4 36.8 10.3 36.3 10.1 35.7 9.9 35 9.8 34.2 9.6 33.4 9.4 32.8 9.1 32.1 8.9 31.6 8.6 31.1 8.2 30.7 7.9 30.3 7.4 30.1 6.9 29.9 6.4 29.8 5.8 29.8 5.1L29.8 5C29.8 4.4 29.9 3.7 30.2 3.2 30.4 2.6 30.8 2.1 31.3 1.7 31.8 1.3 32.3 1 33 0.8 33.6 0.6 34.4 0.5 35.1 0.5 36.3 0.5 37.3 0.6 38.2 1 39.2 1.3 40 1.8 40.8 2.4L39.4 4.5C38.6 4 37.9 3.6 37.2 3.3 36.5 3.1 35.8 2.9 35.1 2.9 34.3 2.9 33.7 3.1 33.2 3.5 32.8 3.8 32.5 4.3 32.5 4.8L32.5 4.8C32.5 5.1 32.6 5.4 32.7 5.6 32.8 5.9 33 6.1 33.3 6.3 33.5 6.4 33.9 6.6 34.4 6.8 34.9 6.9 35.5 7.1 36.3 7.3 37.1 7.5 37.8 7.7 38.5 8 39.1 8.2 39.6 8.6 40 8.9 40.5 9.3 40.8 9.7 41 10.2 41.2 10.7 41.3 11.3 41.3 11.9L41.3 11.9C41.3 12.7 41.2 13.3 40.9 13.9 40.6 14.5 40.2 15 39.7 15.4 39.2 15.8 38.7 16.1 38 16.3 37.3 16.5 36.5 16.6 35.7 16.6ZM47.3 16.6C46.8 16.6 46.4 16.6 45.9 16.4 45.5 16.3 45.2 16.1 44.8 15.9 44.5 15.6 44.3 15.2 44.1 14.8 44 14.4 43.9 13.8 43.9 13.1L43.9 6.9 42.4 6.9 42.4 4.6 43.9 4.6 43.9 1.3 46.6 1.3 46.6 4.6 49.8 4.6 49.8 6.9 46.6 6.9 46.6 12.7C46.6 13.2 46.7 13.6 47 13.8 47.2 14.1 47.6 14.2 48.1 14.2 48.7 14.2 49.2 14.1 49.8 13.8L49.8 16C49.4 16.2 49 16.4 48.7 16.5 48.3 16.6 47.8 16.6 47.3 16.6ZM57.3 14.3C57.9 14.3 58.4 14.2 58.8 14 59.2 13.8 59.6 13.6 59.9 13.2 60.2 12.9 60.5 12.5 60.6 12 60.8 11.5 60.9 11.1 60.9 10.6L60.9 10.5C60.9 10 60.8 9.5 60.6 9 60.4 8.6 60.2 8.2 59.9 7.8 59.5 7.5 59.2 7.2 58.7 7 58.3 6.8 57.8 6.7 57.3 6.7 56.7 6.7 56.2 6.8 55.8 7 55.3 7.2 55 7.5 54.6 7.8 54.3 8.1 54.1 8.5 53.9 9 53.8 9.5 53.7 10 53.7 10.5L53.7 10.5C53.7 11 53.8 11.5 54 12 54.1 12.4 54.4 12.8 54.7 13.2 55 13.5 55.4 13.8 55.8 14 56.3 14.2 56.8 14.3 57.3 14.3ZM57.3 16.7C56.4 16.7 55.5 16.5 54.7 16.2 54 15.9 53.3 15.4 52.7 14.9 52.2 14.3 51.7 13.7 51.4 12.9 51.1 12.2 51 11.4 51 10.6L51 10.5C51 9.7 51.1 8.9 51.4 8.1 51.8 7.4 52.2 6.7 52.8 6.1 53.3 5.6 54 5.1 54.8 4.8 55.5 4.5 56.4 4.3 57.3 4.3 58.2 4.3 59.1 4.5 59.8 4.8 60.6 5.1 61.3 5.6 61.8 6.1 62.4 6.7 62.8 7.3 63.1 8.1 63.5 8.8 63.6 9.6 63.6 10.5L63.6 10.5C63.6 11.4 63.5 12.1 63.1 12.9 62.8 13.6 62.4 14.3 61.8 14.9 61.2 15.4 60.6 15.9 59.8 16.2 59 16.5 58.2 16.7 57.3 16.7ZM70.9 16.7C70 16.7 69.2 16.5 68.5 16.2 67.7 15.9 67.1 15.4 66.5 14.9 66 14.3 65.6 13.7 65.3 12.9 64.9 12.2 64.8 11.4 64.8 10.6L64.8 10.5C64.8 9.7 64.9 8.9 65.3 8.1 65.6 7.4 66 6.7 66.5 6.1 67.1 5.6 67.7 5.1 68.5 4.8 69.2 4.5 70.1 4.3 71 4.3 72.1 4.3 73 4.5 73.8 4.9 74.5 5.2 75.1 5.7 75.7 6.4L74 8.2C73.6 7.7 73.1 7.4 72.7 7.1 72.2 6.8 71.6 6.7 70.9 6.7 70.4 6.7 70 6.8 69.6 7 69.1 7.2 68.8 7.5 68.5 7.8 68.2 8.1 67.9 8.5 67.8 9 67.6 9.5 67.5 10 67.5 10.5L67.5 10.5C67.5 11 67.6 11.5 67.8 12 67.9 12.5 68.2 12.9 68.5 13.2 68.8 13.6 69.2 13.8 69.6 14 70.1 14.2 70.5 14.3 71.1 14.3 71.7 14.3 72.3 14.2 72.8 13.9 73.2 13.6 73.7 13.3 74.1 12.8L75.8 14.5C75.2 15.1 74.5 15.7 73.8 16.1 73 16.5 72.1 16.7 70.9 16.7ZM77.3 0L80.1 0 80.1 9.8 85 4.6 88.3 4.6 83.6 9.4 88.4 16.4 85.3 16.4 81.7 11.3 80.1 13 80.1 16.4 77.3 16.4 77.3 0ZM95.1 15.1C95.7 15.1 96.3 15 96.8 14.8 97.3 14.5 97.8 14.2 98.1 13.8 98.5 13.4 98.8 12.9 99 12.4 99.2 11.9 99.3 11.3 99.3 10.7L99.3 10.6C99.3 10 99.2 9.4 99 8.9 98.8 8.3 98.5 7.8 98.1 7.4 97.7 7 97.3 6.7 96.7 6.4 96.2 6.2 95.6 6.1 95 6.1 94.4 6.1 93.8 6.2 93.3 6.4 92.8 6.7 92.3 7 92 7.4 91.6 7.8 91.3 8.3 91.1 8.8 90.9 9.4 90.8 10 90.8 10.6L90.8 10.6C90.8 11.3 90.9 11.8 91.1 12.4 91.3 12.9 91.6 13.4 92 13.8 92.4 14.2 92.8 14.5 93.4 14.8 93.9 15 94.5 15.1 95.1 15.1ZM95 16.7C94.2 16.7 93.4 16.5 92.6 16.2 91.9 15.9 91.2 15.5 90.7 14.9 90.2 14.4 89.8 13.7 89.5 13 89.2 12.3 89 11.5 89 10.7L89 10.6C89 9.8 89.2 9 89.5 8.3 89.8 7.6 90.2 6.9 90.7 6.4 91.2 5.8 91.9 5.4 92.6 5 93.4 4.7 94.2 4.6 95.1 4.6 95.9 4.6 96.7 4.7 97.5 5 98.2 5.4 98.9 5.8 99.4 6.3 99.9 6.9 100.4 7.5 100.7 8.3 101 9 101.1 9.8 101.1 10.6L101.1 10.6C101.1 11.4 101 12.2 100.7 13 100.3 13.7 99.9 14.3 99.4 14.9 98.8 15.4 98.2 15.9 97.5 16.2 96.7 16.5 95.9 16.7 95 16.7ZM109.2 15.1C109.7 15.1 110.3 15 110.8 14.8 111.3 14.6 111.7 14.3 112.1 13.9 112.4 13.6 112.7 13.1 112.9 12.5 113.2 12 113.3 11.4 113.3 10.6L113.3 10.6C113.3 9.9 113.2 9.3 112.9 8.7 112.7 8.2 112.4 7.7 112 7.3 111.7 6.9 111.2 6.6 110.7 6.4 110.3 6.2 109.7 6.1 109.2 6.1 108.6 6.1 108.1 6.2 107.6 6.4 107.1 6.7 106.7 7 106.3 7.4 105.9 7.8 105.6 8.2 105.3 8.8 105.1 9.3 105 9.9 105 10.6L105 10.6C105 11.3 105.1 11.9 105.3 12.5 105.6 13 105.9 13.5 106.3 13.9 106.7 14.3 107.1 14.6 107.6 14.8 108.1 15 108.6 15.1 109.2 15.1ZM103.3 4.8L105 4.8 105 7.1C105.3 6.8 105.5 6.5 105.8 6.2 106.1 5.8 106.5 5.6 106.8 5.3 107.2 5.1 107.6 4.9 108 4.8 108.5 4.6 108.9 4.6 109.5 4.6 110.2 4.6 110.9 4.7 111.5 5 112.2 5.2 112.8 5.6 113.3 6.1 113.8 6.7 114.3 7.3 114.6 8 114.9 8.8 115 9.6 115 10.6L115 10.6C115 11.6 114.9 12.4 114.6 13.2 114.3 13.9 113.8 14.5 113.3 15.1 112.8 15.6 112.2 16 111.5 16.3 110.9 16.5 110.2 16.7 109.5 16.7 108.9 16.7 108.5 16.6 108 16.5 107.6 16.3 107.2 16.2 106.8 15.9 106.4 15.7 106.1 15.4 105.8 15.1 105.5 14.8 105.3 14.5 105 14.2L105 20 103.3 20 103.3 4.8ZM125.8 9.9C125.8 9.4 125.7 8.9 125.5 8.4 125.3 8 125.1 7.5 124.7 7.2 124.4 6.8 124.1 6.5 123.6 6.3 123.2 6.1 122.7 6 122.1 6 121.6 6 121.1 6.1 120.7 6.3 120.3 6.5 119.9 6.8 119.6 7.1 119.2 7.5 119 7.9 118.7 8.4 118.5 8.9 118.4 9.4 118.3 9.9L125.8 9.9ZM118.3 11.3C118.4 11.9 118.5 12.5 118.8 13 119 13.4 119.3 13.8 119.7 14.2 120.1 14.5 120.5 14.8 121 14.9 121.4 15.1 121.9 15.2 122.4 15.2 123.2 15.2 123.9 15 124.5 14.7 125.1 14.4 125.6 14 126.1 13.5L127.2 14.5C126.6 15.2 125.9 15.7 125.2 16.1 124.4 16.5 123.5 16.7 122.4 16.7 121.6 16.7 120.8 16.5 120.1 16.3 119.4 16 118.8 15.5 118.3 15 117.8 14.5 117.3 13.8 117 13.1 116.7 12.3 116.6 11.5 116.6 10.6 116.6 9.8 116.7 9 117 8.3 117.3 7.5 117.7 6.9 118.2 6.3 118.6 5.8 119.2 5.3 119.9 5 120.6 4.7 121.3 4.6 122.2 4.6 123 4.6 123.8 4.7 124.4 5 125.1 5.4 125.7 5.8 126.2 6.4 126.6 6.9 127 7.6 127.2 8.3 127.4 9.1 127.6 9.9 127.6 10.7L127.6 11C127.6 11.1 127.6 11.2 127.5 11.3L118.3 11.3ZM134.9 15.1C135.4 15.1 135.9 15 136.4 14.8 136.9 14.6 137.4 14.3 137.8 13.9 138.2 13.5 138.5 13 138.7 12.5 138.9 11.9 139.1 11.3 139.1 10.6L139.1 10.6C139.1 9.9 138.9 9.3 138.7 8.7 138.5 8.2 138.2 7.7 137.8 7.3 137.4 7 136.9 6.7 136.4 6.4 135.9 6.2 135.4 6.1 134.9 6.1 134.3 6.1 133.8 6.2 133.3 6.4 132.8 6.6 132.3 6.9 132 7.3 131.6 7.7 131.3 8.1 131.1 8.7 130.9 9.2 130.8 9.9 130.8 10.6L130.8 10.6C130.8 11.3 130.9 11.9 131.1 12.5 131.3 13 131.6 13.5 132 13.9 132.4 14.3 132.8 14.6 133.3 14.8 133.8 15 134.3 15.1 134.9 15.1ZM134.5 16.7C133.8 16.7 133.2 16.5 132.5 16.3 131.8 16 131.3 15.6 130.7 15.1 130.2 14.6 129.8 13.9 129.5 13.2 129.2 12.5 129 11.6 129 10.6L129 10.6C129 9.7 129.2 8.8 129.5 8.1 129.8 7.3 130.2 6.7 130.7 6.2 131.3 5.6 131.8 5.2 132.5 5 133.2 4.7 133.8 4.6 134.5 4.6 135.1 4.6 135.6 4.6 136 4.8 136.5 4.9 136.9 5.1 137.2 5.3 137.6 5.5 137.9 5.8 138.2 6.1 138.5 6.4 138.8 6.7 139 7L139 0 140.7 0 140.7 16.4 139 16.4 139 14.1C138.8 14.4 138.5 14.8 138.2 15.1 137.9 15.4 137.6 15.7 137.2 15.9 136.9 16.1 136.5 16.3 136 16.5 135.6 16.6 135.1 16.7 134.5 16.7ZM143.8 4.8L145.6 4.8 145.6 16.4 143.8 16.4 143.8 4.8ZM143.7 0.4L145.7 0.4 145.7 2.3 143.7 2.3 143.7 0.4ZM152.4 15.3C153 15.3 153.5 15.2 153.9 15.1 154.4 14.9 154.8 14.7 155.2 14.4 155.5 14.1 155.8 13.8 156 13.4 156.2 13 156.3 12.6 156.3 12.2L156.3 11.1C155.9 11 155.4 10.8 154.8 10.7 154.3 10.6 153.6 10.6 152.9 10.6 151.8 10.6 151 10.8 150.4 11.2 149.8 11.6 149.5 12.2 149.5 12.9L149.5 13C149.5 13.3 149.6 13.6 149.8 13.9 149.9 14.2 150.1 14.5 150.4 14.7 150.7 14.9 151 15 151.3 15.1 151.7 15.2 152.1 15.3 152.4 15.3ZM152.1 16.7C151.6 16.7 151 16.6 150.5 16.4 150 16.3 149.5 16.1 149.1 15.8 148.7 15.5 148.4 15.1 148.1 14.6 147.9 14.2 147.8 13.7 147.8 13.1L147.8 13C147.8 12.4 147.9 11.8 148.1 11.4 148.4 10.9 148.7 10.5 149.1 10.2 149.6 9.9 150.1 9.6 150.7 9.5 151.3 9.3 152 9.2 152.7 9.2 153.5 9.2 154.1 9.3 154.7 9.3 155.2 9.4 155.8 9.6 156.3 9.7L156.3 9.3C156.3 8.3 156 7.5 155.4 7 154.8 6.5 153.9 6.2 152.8 6.2 152.2 6.2 151.5 6.3 151 6.4 150.4 6.6 149.9 6.8 149.3 7L148.8 5.6C149.4 5.3 150.1 5.1 150.8 4.9 151.4 4.7 152.2 4.6 153 4.6 154.7 4.6 155.9 5.1 156.8 5.9 157.6 6.7 158 7.9 158 9.3L158 16.4 156.3 16.4 156.3 14.7C155.9 15.2 155.3 15.7 154.7 16.1 154 16.5 153.1 16.7 152.1 16.7Z"></path>
</g>
</svg>